<svg width="65" height="65" viewBox="0 0 65 65" fill="none" xmlns="http://www.w3.org/2000/svg">
<path d="M5.62596 30.3311C3.75227 27.3489 2.44371 22.9516 5.14161 20.1013C7.82867 17.2623 11.919 18.6051 15.1459 19.5818C18.0488 20.4606 21.6953 20.895 23.6696 18.6029C25.5803 16.3846 24.8233 12.7272 27.1269 10.7719C29.9089 8.41051 34.9069 10.913 37.3753 12.5648C45.1709 17.7819 52.0028 24.2378 57.6965 32.2536C59.8346 35.2638 62.9387 40.8717 60.4874 43.2087C58.7653 44.8505 55.696 43.5742 51.2988 41.8756C49.4751 41.1712 46.7177 40.5242 45.0917 41.6063C43.2588 42.8261 42.9249 45.1983 42.9696 47.1189C43.0448 50.3533 43.0009 55.0803 37.9422 55.1473C27.3118 55.2885 8.46068 34.8432 5.62596 30.3311Z" fill="#FFF4DB"/>
<path d="M57.6966 32.254C52.0029 24.2381 45.171 17.7822 37.3755 12.5652C35.0916 11.0366 30.6431 8.78315 27.7871 10.325C29.5068 10.8909 31.1496 11.8151 32.2704 12.5652C40.066 17.7822 46.8978 24.2381 52.5915 32.254C54.7297 35.2642 57.8338 40.8721 55.3825 43.2091C55.3355 43.2539 55.2871 43.2956 55.2381 43.3361C57.5849 44.0995 59.3372 44.3058 60.4876 43.2091C62.9389 40.8721 59.8347 35.2642 57.6966 32.254Z" fill="#FFECBF"/>
<path d="M39.9863 41.6066C38.1535 42.8263 37.8195 45.1985 37.8642 47.119C37.9266 49.8053 37.9066 53.5208 35 54.7415C36.032 55.0163 37.018 55.1598 37.9418 55.1476C43.0004 55.0805 43.0443 50.3535 42.9692 47.1191C42.9245 45.1987 43.2585 42.8265 45.0912 41.6067C45.1291 41.5816 45.1682 41.5582 45.2072 41.5348C43.4771 41.0034 41.3399 40.7056 39.9863 41.6066Z" fill="#FFECBF"/>
<path d="M50.8336 18.9014L46.0708 14.1381L58.2948 1.91297C59.6102 0.597369 61.7435 0.597369 63.059 1.91297C64.3739 3.22807 64.3739 5.3598 63.059 6.67489L50.8336 18.9014Z" fill="#F0A346"/>
<path d="M14.1598 46.0522L18.9226 50.8156L6.69863 63.0407C5.38318 64.3563 3.2499 64.3563 1.93445 63.0407C0.619507 61.7256 0.619507 59.5939 1.93445 58.2788L14.1598 46.0522Z" fill="#F0A346"/>
<path d="M14.2355 57.0837L7.89063 50.7381C6.44271 49.29 6.44271 46.9425 7.89063 45.4944L45.5115 7.8698C46.96 6.42101 49.3092 6.42101 50.7577 7.8698L57.1026 14.2153C58.5505 15.6635 58.5505 18.0109 57.1026 19.4591L19.4817 57.0837C18.0331 58.5323 15.684 58.5323 14.2355 57.0837Z" fill="#5974AD"/>
<path d="M57.1029 14.2153L50.7581 7.8698C49.3095 6.42101 46.9604 6.42101 45.5118 7.8698L45.0719 8.30973L50.9768 14.2152C52.4247 15.6634 52.4247 18.0108 50.9768 19.459L13.7959 56.6436L14.2358 57.0836C15.6844 58.5323 18.0335 58.5323 19.4821 57.0836L57.1029 19.459C58.551 18.0109 58.551 15.6635 57.1029 14.2153Z" fill="#4C6BAD"/>
<path d="M63.7377 1.24147C62.0844 -0.411856 59.2732 -0.415792 57.6161 1.24147L51.5481 7.31011C49.7159 5.48335 46.7065 5.3249 44.833 7.19851L39.3029 12.7291C36.3329 10.6543 32.6995 8.25993 28.8748 8.95227C24.821 9.68561 24.8889 13.7907 23.6298 16.827C22.3594 19.89 18.568 19.4682 16.4214 18.9442C13.1111 18.1367 9.56022 16.4807 6.22124 18.1286C2.42919 20.0001 2.0726 24.4321 3.40145 27.9946C3.82377 29.1265 5.62663 28.4856 5.19627 27.332C4.23805 24.7634 4.27468 21.2151 7.072 19.8348C9.89116 18.4431 13.1883 20.1162 15.9653 20.794C20.6339 21.933 24.0727 20.7522 25.3995 17.5535C26.3185 15.3382 26.2233 11.3676 29.2173 10.826C32.3511 10.259 35.5217 12.4283 37.9331 14.099L13.7404 38.2943C11.5562 36.0721 9.77527 34.1049 8.18044 32.1542C7.39962 31.1989 5.91417 32.4007 6.69525 33.3558C8.33194 35.358 10.1557 37.3723 12.3901 39.6447L7.21227 44.8231C5.33653 46.699 5.50985 49.7046 7.33262 51.5302L1.25592 57.6074C-2.63236 61.4962 3.38729 67.7031 7.37754 63.7123L13.4456 57.6437C15.2778 59.4705 18.2871 59.6289 20.1607 57.7553L26.364 51.5513C30.9118 54.5709 34.7681 56.1007 37.8339 56.1007C37.8743 56.1007 37.9147 56.1004 37.9548 56.0999C39.7131 56.0766 41.1113 55.5419 42.1107 54.511C44.0523 52.5076 43.9735 49.1208 43.9264 47.0973C43.8722 44.7648 44.4433 43.1839 45.6239 42.3982C47.2308 41.3285 49.8515 42.2957 51.4336 42.9499C55.8559 44.6613 59.0509 45.8978 61.1498 43.8966C64.4629 40.7379 59.9426 33.766 58.4782 31.7045C56.7886 29.3258 54.9589 27.0338 53.0345 24.8784L57.7815 20.131C59.6572 18.2549 59.4839 15.2494 57.6611 13.4238L63.7378 7.34668C65.4207 5.66338 65.4207 2.92464 63.7377 1.24147ZM6.02023 62.3693C3.8105 64.579 0.419833 61.1441 2.61323 58.9504L8.68266 52.8804L12.0954 56.2934L6.02023 62.3693ZM56.4242 18.7878L48.5782 26.6346C47.7055 27.5075 49.0624 28.8504 49.9355 27.9776L51.6821 26.2308C53.5306 28.308 55.2889 30.5146 56.9148 32.8034C57.5409 33.6849 59.0862 35.9852 59.9107 38.3017C60.4124 39.7113 60.8049 41.5875 59.8252 42.5215C58.6074 43.6826 55.8894 42.6307 52.1276 41.1749C49.8785 40.2699 46.7718 39.3427 44.5595 40.8152C42.7991 41.9867 41.9422 44.1151 42.0126 47.1413C42.0645 49.3748 42.0128 51.8682 40.7326 53.1892C40.0922 53.8499 39.1753 54.1791 37.9295 54.1956C35.3017 54.2323 31.8774 52.8778 27.7412 50.1741L46.3644 31.549C47.2371 30.6761 45.8798 29.3328 45.0071 30.206L18.8033 56.4124C17.7425 57.4733 15.9751 57.4733 14.9143 56.4124L8.56945 50.0668C7.49407 48.9915 7.49407 47.2416 8.56945 46.1661L46.1902 8.54154C47.251 7.48062 49.0184 7.48062 50.0792 8.54154L56.4241 14.8871C57.4994 15.9625 57.4994 17.7123 56.4242 18.7878ZM62.3805 6.00352L56.3111 12.0736L52.8984 8.66038L58.9735 2.58463C61.1831 0.375069 64.5738 3.80983 62.3805 6.00352Z" fill="black"/>
<path d="M50.1559 18.2301L34.9942 33.3934C34.1217 34.2659 35.4782 35.6098 36.3515 34.7364L51.5132 19.5732C52.3858 18.7003 51.0286 17.3571 50.1559 18.2301Z" fill="black"/>
</svg>
