<svg width="65" height="59" viewBox="0 0 65 59" fill="none" xmlns="http://www.w3.org/2000/svg">
<path d="M43.8742 23.1084C43.0441 23.1084 42.3711 22.4319 42.3711 21.5974C42.3711 18.2302 44.0829 15.177 46.9499 13.4296C47.6599 12.9969 48.5842 13.2248 49.0147 13.9384C49.4451 14.6522 49.2183 15.5814 48.5086 16.014C46.5481 17.2087 45.3777 19.2959 45.3777 21.5974C45.3773 22.4319 44.7044 23.1084 43.8742 23.1084Z" fill="#54D195"/>
<path d="M51.7637 21.6296C48.0593 20.9729 44.5269 23.4595 43.8737 27.1835L42.7364 33.6676C42.0833 37.3916 44.5567 40.9428 48.261 41.5994C51.9654 42.256 55.4978 39.7695 56.1509 36.0455L57.2881 29.5614C57.9416 25.8374 55.468 22.2862 51.7637 21.6296Z" fill="#E24B4B"/>
<path d="M51.7629 21.6294C51.5133 21.5851 51.2646 21.5562 51.0173 21.54C53.6437 22.3867 55.2365 25.6167 54.6273 29.0896L53.4901 35.5737C52.881 39.0468 50.2853 41.5342 47.5293 41.4269C47.7672 41.4966 48.0107 41.555 48.2603 41.5993C51.9646 42.256 55.4971 39.7694 56.1504 36.0454L57.2876 29.5614C57.9408 25.8372 55.4673 22.286 51.7629 21.6294Z" fill="#C14444"/>
<path d="M36.3392 21.6296C40.0435 20.9729 43.576 23.4595 44.2291 27.1835L45.3664 33.6676C46.0196 37.3916 43.5461 40.9428 39.8418 41.5994C36.1374 42.256 32.605 39.7695 31.9518 36.0455L30.8146 29.5614C30.1614 25.8374 32.6348 22.2862 36.3392 21.6296Z" fill="#E24B4B"/>
<path d="M44.0515 20.1597C40.0459 20.1597 36.7988 23.424 36.7988 27.4508V34.4621C36.7988 38.489 40.0459 41.7533 44.0515 41.7533C48.0571 41.7533 51.3042 38.489 51.3042 34.4621V27.4508C51.3042 23.424 48.0571 20.1597 44.0515 20.1597Z" fill="#FF5F5F"/>
<path d="M30.1043 16.8424C31.5303 13.9514 30.355 10.4455 27.4791 9.01189C24.6033 7.57826 21.116 8.75983 19.6899 11.6509C18.7863 13.4832 18.9285 15.5614 19.8848 17.2036C19.4807 17.5205 19.1394 17.9312 18.8966 18.4236C18.0304 20.1796 18.7443 22.3089 20.491 23.1796C22.2378 24.0504 24.3558 23.3327 25.2218 21.5767C25.4648 21.0843 25.5832 20.5625 25.5896 20.0474C27.469 19.8188 29.2006 18.6746 30.1043 16.8424Z" fill="#39B375"/>
<path d="M8.21375 16.8424C6.78769 13.9514 7.96302 10.4455 10.8389 9.01189C13.7147 7.57826 17.202 8.75983 18.6281 11.6509C19.5317 13.4832 19.3895 15.5614 18.4332 17.2036C18.8373 17.5205 19.1786 17.9312 19.4214 18.4236C20.2876 20.1796 19.5737 22.3089 17.827 23.1796C16.0802 24.0504 13.9622 23.3327 13.0961 21.5767C12.8531 21.0843 12.7347 20.5625 12.7283 20.0474C10.8492 19.8188 9.1174 18.6746 8.21375 16.8424Z" fill="#39B375"/>
<path d="M24.97 10.5632C24.97 7.33617 22.3677 4.72021 19.1578 4.72021C15.948 4.72021 13.3457 7.3363 13.3457 10.5632C13.3457 12.6082 14.3915 14.4067 15.974 15.4508C15.7521 15.9152 15.6277 16.4355 15.6277 16.9852C15.6277 18.9452 17.2081 20.534 19.1577 20.534C21.1073 20.534 22.6878 18.9452 22.6878 16.9852C22.6878 16.4355 22.5634 15.9152 22.3414 15.4508C23.9242 14.4067 24.97 12.6082 24.97 10.5632Z" fill="#54D195"/>
<path d="M26.8889 31.8483C27.2441 30.9204 27.4408 29.9133 27.4408 28.8595C27.4408 24.2613 23.7328 20.5337 19.159 20.5337C14.585 20.5337 10.877 24.2614 10.877 28.8595C10.877 29.9132 11.0736 30.9203 11.4289 31.8483C14.345 39.5245 14.3646 39.5764 15.66 42.9862C16.1771 44.4262 17.5483 45.4557 19.159 45.4557C20.7696 45.4557 22.1408 44.4261 22.6579 42.9862C23.9533 39.5763 23.973 39.5245 26.8889 31.8483Z" fill="#FF8A57"/>
<path d="M19.1583 20.5337C21.5706 20.5337 23.526 24.2614 23.526 28.8595C23.526 29.9132 23.4223 30.9203 23.2349 31.8483C21.6971 39.5245 21.6867 39.5764 21.0035 42.9862C20.7309 44.4262 20.0076 45.4557 19.1582 45.4557C20.7689 45.4557 22.1401 44.4261 22.6571 42.9862C23.9526 39.5764 23.9721 39.5245 26.8882 31.8483C27.2434 30.9204 27.4402 29.9133 27.4402 28.8595C27.4403 24.2613 23.7323 20.5337 19.1583 20.5337Z" fill="#F96E3E"/>
<path d="M9.30417 53.5302L5.48633 39.0938H59.5122L55.6942 53.5302C54.9957 56.1713 52.6174 58.0096 49.8989 58.0096H15.0992C12.3809 58.0096 10.0025 56.1713 9.30417 53.5302Z" fill="#C99363"/>
<path d="M53.5649 39.0938L50.5876 53.5302C50.043 56.1713 48.1882 58.0096 46.0684 58.0096H49.8993C52.6176 58.0096 54.9959 56.1713 55.6944 53.5302L59.5123 39.0939H53.565V39.0938H53.5649Z" fill="#BA7F4F"/>
<path d="M64.0144 32.3872H0.984375V39.0942H64.0144V32.3872Z" fill="#F7E3AA"/>
<path d="M64.0147 32.3872H60.0557V39.0942H64.0147V32.3872Z" fill="#E0C48C"/>
<path d="M64.0148 31.397H61.2201V28.8727C61.2201 21.1604 58.2328 13.9097 52.8082 8.45665C47.3837 3.00317 40.1715 0 32.5 0C29.9046 0 27.3314 0.34842 24.8521 1.03518C24.3278 1.18054 24.0198 1.72551 24.1643 2.25273C24.3089 2.77996 24.8515 3.08971 25.3754 2.94421C27.6843 2.30455 30.0814 1.98012 32.5 1.98012C47.2504 1.98012 59.2506 14.0441 59.2506 28.8727V31.397H57.9663L58.2577 29.7331C58.6197 27.6717 58.1613 25.5919 56.9668 23.877C55.7723 22.1624 53.9852 21.018 51.935 20.6549C50.9017 20.4713 49.8695 20.497 48.8597 20.7283C48.203 20.2537 47.4813 19.8804 46.7207 19.6185C47.1493 18.4763 47.9434 17.516 49.0189 16.8608C49.5876 16.5143 49.9877 15.9658 50.1456 15.3167C50.3035 14.6678 50.2006 13.9958 49.8562 13.4249C49.5122 12.8536 48.967 12.4515 48.3217 12.2923C47.6764 12.1332 47.0076 12.2363 46.4389 12.5831C43.8879 14.1391 42.1447 16.6535 41.5818 19.5518C40.7479 19.8155 39.9574 20.2123 39.2436 20.7283C38.2338 20.4972 37.2019 20.4714 36.1689 20.6548C34.1181 21.0181 32.3309 22.1623 31.1365 23.877C29.942 25.5918 29.4836 27.6716 29.8455 29.7326L30.137 31.3967H28.0757C28.2891 30.6394 28.4034 29.8601 28.4208 29.0697C28.4223 29.0467 28.4242 29.0239 28.4242 29.0005C28.4242 28.9917 28.4232 28.9831 28.4229 28.9744C28.4234 28.9362 28.4256 28.8981 28.4256 28.8599C28.4256 26.3727 27.4491 24.1118 25.8635 22.4394C25.9501 22.3027 26.032 22.163 26.1039 22.0169C26.2825 21.655 26.4107 21.2776 26.4878 20.889C28.4365 20.4187 30.0836 19.1119 30.986 17.283C31.7926 15.6479 31.9174 13.7949 31.3376 12.0653C30.7577 10.3354 29.5428 8.9364 27.9161 8.12546C27.0666 7.70199 26.1381 7.46576 25.197 7.42364C24.0375 5.15904 21.7357 3.72937 19.1587 3.72937C15.411 3.72937 12.3619 6.79534 12.3619 10.5636C12.3619 12.6053 13.2597 14.5119 14.7976 15.8036C14.6954 16.1853 14.6441 16.5802 14.6441 16.9844C14.6441 18.2022 15.1194 19.3173 15.9059 20.138C15.2219 20.3966 14.5756 20.733 13.979 21.1386C13.9788 21.1381 13.9784 21.1376 13.9781 21.137C13.807 20.7903 13.7179 20.4193 13.713 20.0343C13.7067 19.5383 13.3362 19.1235 12.8465 19.0641C11.2227 18.8666 9.82067 17.8719 9.0959 16.4033C8.15925 14.5041 8.57616 12.1641 10.1099 10.7128C10.506 10.3381 10.5249 9.71134 10.1519 9.31328C9.77929 8.91496 9.15595 8.89632 8.75973 9.27103C6.56586 11.3473 5.99166 14.567 7.33126 17.283C8.23364 19.1119 9.88098 20.4187 11.8294 20.889C11.9065 21.2779 12.0351 21.6555 12.2142 22.0186C12.2863 22.164 12.368 22.303 12.4543 22.4389C10.8685 24.1114 9.89177 26.3725 9.89177 28.8599C9.89177 29.7229 10.0095 30.5731 10.2414 31.3968H5.7493V28.8725C5.7493 26.3665 6.09182 23.8855 6.76708 21.4988C6.91587 20.973 6.61245 20.4253 6.08928 20.2756C5.56611 20.1259 5.02148 20.4309 4.87257 20.957C4.14729 23.52 3.77963 26.1832 3.77963 28.8725V31.3968H0.984898C0.441033 31.3968 0 31.84 0 32.387V39.0941C0 39.641 0.440906 40.0842 0.984898 40.0842H4.72975L8.3531 53.7848C9.16509 56.8555 11.9395 59 15.1 59H49.9C53.0605 59 55.8348 56.8555 56.647 53.7848L60.2701 40.0842H64.0151C64.5591 40.0842 65 39.6411 65 39.0941V32.387C64.9997 31.8402 64.559 31.397 64.0148 31.397ZM55.3532 25.013C56.2457 26.2943 56.5884 27.8485 56.3177 29.3894L55.966 31.397H52.2886V27.4515C52.2886 25.6484 51.7102 23.929 50.6651 22.5165C50.9734 22.5217 51.2828 22.55 51.5925 22.6051C53.125 22.8764 54.4606 23.7315 55.3532 25.013ZM37.7839 31.397V27.4515C37.7839 25.5548 38.6217 23.7769 40.0824 22.5737C40.0839 22.5724 40.0857 22.5711 40.0872 22.5698C41.201 21.6539 42.6085 21.1493 44.0514 21.1493C45.4941 21.1493 46.9018 21.6539 48.0159 22.57C48.0174 22.5712 48.0189 22.5725 48.0205 22.5737C49.4812 23.7768 50.3189 25.5546 50.3189 27.4515V31.397H37.7839ZM47.4602 14.276C47.5788 14.2038 47.7181 14.1824 47.8526 14.2154C47.9868 14.2486 48.1001 14.3319 48.1717 14.4509C48.3202 14.6969 48.242 15.0186 47.998 15.1674C46.4503 16.11 45.3324 17.5219 44.7791 19.202C44.5378 19.1803 44.295 19.169 44.0517 19.169C43.934 19.169 43.8167 19.1716 43.6995 19.1766C44.2893 17.1469 45.6131 15.4026 47.4602 14.276ZM31.785 29.3889C31.5145 27.8483 31.8571 26.2943 32.7497 25.013C33.6422 23.7316 34.978 22.8765 36.5111 22.6051C36.8206 22.55 37.1298 22.5217 37.4377 22.5165C36.3927 23.9289 35.8142 25.6484 35.8142 27.4515V31.397H32.1368L31.785 29.3889ZM27.0409 9.89946C28.196 10.4752 29.0591 11.4689 29.4709 12.6974C29.8827 13.9259 29.7941 15.2419 29.2213 16.403C28.4965 17.8719 27.0946 18.8666 25.4708 19.0641C24.981 19.1234 24.6105 19.5382 24.6042 20.0341C24.5992 20.4192 24.51 20.7903 24.3383 21.138C24.3382 21.1381 24.3381 21.1384 24.3381 21.1385C23.7414 20.7326 23.095 20.3962 22.4107 20.1377C23.1978 19.3168 23.673 18.2018 23.673 16.9843C23.673 16.5799 23.6216 16.1851 23.5195 15.8035C25.0574 14.5119 25.9553 12.6051 25.9553 10.5635C25.9553 10.203 25.9278 9.84586 25.8727 9.49425C26.2758 9.57823 26.6689 9.71402 27.0409 9.89946ZM14.3314 10.5636C14.3314 7.88718 16.4967 5.70949 19.1584 5.70949C21.152 5.70949 22.9144 6.91352 23.6486 8.77699C23.872 9.34608 23.9854 9.9472 23.9854 10.5635C23.9854 12.2032 23.1694 13.7206 21.8022 14.6228C21.3897 14.8949 21.2413 15.4317 21.4547 15.879C21.6195 16.2241 21.7031 16.5961 21.7031 16.9845C21.7031 18.2363 20.8145 19.2972 19.5903 19.5067C19.5893 19.5068 19.5883 19.5072 19.5873 19.5073C19.5866 19.5074 19.5861 19.5074 19.5856 19.5076C19.31 19.5561 19.0118 19.557 18.7263 19.5067C17.5021 19.297 16.6135 18.2361 16.6135 16.9845C16.6135 16.5961 16.6971 16.2241 16.8618 15.879C17.0754 15.4318 16.9268 14.895 16.5145 14.6228C15.1476 13.7207 14.3314 12.2032 14.3314 10.5636ZM11.8614 28.86C11.8614 24.8152 15.1349 21.5244 19.1584 21.5244C22.8962 21.5244 25.9847 24.3648 26.405 28.0107H14.7459C14.2021 28.0107 13.761 28.4539 13.761 29.0008C13.761 29.5477 14.2019 29.9909 14.7459 29.9909H26.3669C26.2929 30.4686 26.1718 30.9385 26.004 31.3971H12.3129C12.0143 30.5817 11.8614 29.7292 11.8614 28.86ZM63.0301 38.104H21.0923C20.5484 38.104 20.1074 38.5471 20.1074 39.0941C20.1074 39.6411 20.5483 40.0842 21.0923 40.0842H58.2319L54.7434 53.2762C54.1604 55.4803 52.1688 57.0199 49.8999 57.0199H15.0999C12.8311 57.0199 10.8395 55.4803 10.2565 53.2762L6.76784 40.0842H17.0707C17.6145 40.0842 18.0556 39.6411 18.0556 39.0941C18.0556 38.5471 17.6147 38.104 17.0707 38.104H1.96967V33.377H4.7644H26.6726C26.6764 33.377 26.6801 33.3775 26.6839 33.3775C26.6863 33.3775 26.6884 33.377 26.6908 33.377H31.3005C31.3035 33.377 31.3064 33.3774 31.3092 33.3774C31.3121 33.3774 31.3151 33.377 31.3181 33.377H36.7942C36.7958 33.377 36.7976 33.3772 36.7992 33.3772C36.8009 33.3772 36.8027 33.377 36.8043 33.377H51.299C51.3007 33.377 51.3024 33.3772 51.3041 33.3772C51.3057 33.3772 51.3075 33.377 51.3092 33.377H56.7851C56.7881 33.377 56.7911 33.3774 56.794 33.3774C56.797 33.3774 56.7999 33.377 56.8027 33.377H60.2355H63.0298V38.104H63.0301Z" fill="black"/>
</svg>
