<svg width="13" height="13" viewBox="0 0 13 13" fill="none" xmlns="http://www.w3.org/2000/svg">
<path d="M12.685 4.98157C12.6037 4.71869 12.3806 4.5328 12.1162 4.50734L8.52703 4.16704L7.1078 0.700437C7.00326 0.446657 6.76492 0.282715 6.5001 0.282715C6.23517 0.282715 5.99683 0.447175 5.89229 0.701576L4.47316 4.16766L0.883369 4.50786C0.619637 4.5328 0.396471 4.71869 0.31514 4.98157C0.233411 5.24446 0.309189 5.53208 0.50855 5.71414L3.22185 8.19667L2.42172 11.8736C2.3633 12.1438 2.46398 12.4229 2.67911 12.5858C2.79386 12.6739 2.92985 12.718 3.06583 12.718C3.18336 12.718 3.3004 12.6853 3.40494 12.6197L6.5001 10.6883L9.59466 12.6192C9.8211 12.761 10.1066 12.7486 10.3211 12.5864C10.5361 12.4236 10.6369 12.1443 10.5784 11.8741L9.77835 8.19729L12.4916 5.71466C12.6909 5.53271 12.7668 5.24498 12.685 4.98157Z" fill="#F2C94C"/>
<path d="M2.91027 13C2.76725 13 2.62581 12.9537 2.5051 12.8627C2.28025 12.6931 2.17521 12.4008 2.23641 12.1183L3.07274 8.27465L0.236451 5.67899C0.0279647 5.48856 -0.0516805 5.18841 0.0339158 4.9131C0.119512 4.63841 0.352398 4.44342 0.628131 4.41682L4.38148 4.0613L5.86458 0.438112C5.97399 0.171912 6.22314 0 6.49996 0C6.77679 0 7.02594 0.171912 7.13534 0.437491L8.61845 4.0613L12.3712 4.41682C12.6475 4.4428 12.8804 4.6379 12.966 4.91258C13.0516 5.18779 12.9725 5.48855 12.7634 5.67848L9.92768 8.27351L10.764 12.1172C10.8253 12.3998 10.7202 12.692 10.4954 12.8615C10.2717 13.0305 9.97321 13.0447 9.73646 12.8966L6.49996 10.8787L3.26396 12.8977C3.15456 12.9662 3.03266 13 2.91027 13ZM6.49996 10.0094C6.62295 10.0094 6.74475 10.0439 6.85425 10.1117L9.90824 12.0177L9.11893 8.38932C9.0626 8.13047 9.14661 7.86137 9.33783 7.68677L12.0159 5.23529L8.47274 4.89954C8.21873 4.87584 7.99874 4.7091 7.89906 4.46319L6.49996 1.044L5.09967 4.46371C5.00059 4.70848 4.78069 4.87522 4.52609 4.89902L0.98351 5.23478L3.6615 7.68615C3.85332 7.86086 3.93673 8.13047 3.8804 8.38932L3.09118 12.0177L6.14518 10.1117C6.25507 10.0439 6.37697 10.0094 6.49996 10.0094ZM4.35222 4.13199V4.13251V4.13199ZM8.64721 4.13023V4.13085C8.64721 4.13085 8.64721 4.13085 8.64721 4.13023Z" fill="#333333"/>
</svg>
