<svg width="30" height="30" viewBox="0 0 30 30" fill="none" xmlns="http://www.w3.org/2000/svg">
<path d="M0.5 2.5V0.5H1.5C2.16667 0.666667 3.7 1.2 4.5 2C5.3 2.8 6.16667 4.33333 6.5 5C6.66667 4.83333 7.4 4.5 9 4.5C10.6 4.5 11.6667 5.5 12 6L15 9.80438L16 8L18.5 5L21.5 4.5H23.5C24.1667 3.83333 25.2 1.9 26 1.5C26.8 1.1 28.5 1.16667 29 1V2.5L26 4L24.5 5.5C24.8333 6.16667 25.5 7.6 25.5 8C25.5 8.4 24.5 10.5 24 11.5L22 15.5L20.5 18.5L23 22.5L29 29.5L26.5 29C24.8333 28.5 21.2 27.4 20 27C18.8 26.6 16.1667 24.8333 15 24C13.8333 24.5 11.2 25.8 10 27C8.8 28.2 3.5 29.1667 1 29.5L5 25L9.5 18C8.33333 15.8333 5.8 11 5 9C4 6.5 5.5 7.5 5.5 5.5C5.5 3.9 2.16667 2.83333 0.5 2.5Z" fill="#FF6868"/>
<path d="M29.4093 3.25061C29.7328 3.25049 29.9949 2.98822 29.9949 2.66479V0.58582C29.9949 0.262266 29.7326 0 29.4091 0C26.2224 0 24.0804 2.12912 22.6965 3.90469C21.8864 3.60404 21.0077 3.51686 20.1401 3.66176C18.9032 3.86818 17.7971 4.52637 17.0256 5.51502L16.1896 6.58611C16.1878 6.58846 16.186 6.5908 16.1842 6.59314C15.7637 7.14908 15.3698 7.69231 14.9975 8.22475C14.6114 7.67279 14.2195 7.13379 13.8105 6.59314C13.8087 6.5908 13.8069 6.58846 13.8051 6.58611L12.9692 5.51496C12.1977 4.52637 11.0916 3.86818 9.85465 3.6617C8.98706 3.51674 8.10839 3.60398 7.29821 3.90463C5.91452 2.12912 3.77251 0 0.585827 0C0.262272 0 6.32138e-06 0.262266 6.32138e-06 0.58582V2.66473C6.32138e-06 2.98816 0.262155 3.25043 0.585592 3.25055C1.98276 3.25113 3.31963 4.12242 4.77159 5.98418C3.90247 7.40895 3.77426 9.22688 4.56077 10.8094L5.66684 13.0352C5.75479 13.2274 6.79413 15.4618 8.85182 18.2795C6.91383 21.3606 4.42366 24.7479 0.171569 28.9999C0.0040493 29.1674 -0.0460484 29.4195 0.0445962 29.6384C0.135299 29.8573 0.348932 30 0.585885 30C4.26006 30 7.79901 29.1024 11.1046 27.3321C12.4426 26.6155 13.7431 25.7555 14.9975 24.7605C19.3788 28.2373 24.2249 30 29.4092 30C29.6461 30 29.8598 29.8572 29.9504 29.6384C30.0411 29.4195 29.991 29.1674 29.8235 29C28.7386 27.9151 27.7187 26.8366 26.7921 25.7945C26.5772 25.5527 26.2068 25.531 25.965 25.7459C25.7232 25.9608 25.7015 26.3312 25.9164 26.573C26.5583 27.295 27.2438 28.0337 27.9639 28.7795C23.6681 28.4868 19.6262 26.881 15.9213 23.996C16.808 23.2311 17.6698 22.3976 18.5027 21.4965C19.1943 20.7485 19.8222 20.0024 20.3881 19.2805C21.1613 20.4936 25.096 25.475 25.9164 26.573C26.0315 26.727 26.2077 26.8082 26.3862 26.8082C26.5082 26.8082 26.6312 26.7703 26.7364 26.6916C26.9956 26.498 27.0488 26.1309 26.8551 25.8717C25.9705 24.6877 21.9826 19.6193 21.1434 18.2829C23.1924 15.4806 24.2333 13.2429 24.3282 13.0351L25.4343 10.8094C26.2208 9.22682 26.0926 7.40889 25.2234 5.98412C26.6753 4.12242 28.0122 3.25119 29.4093 3.25061ZM1.17165 2.1174V1.20205C3.45071 1.43988 5.10171 3.03352 6.23661 4.45125C5.97575 4.62756 5.73633 4.82461 5.5193 5.03924C4.4942 3.76301 3.0504 2.3649 1.17165 2.1174ZM5.78268 10.6357L5.60989 10.2881C4.9544 8.96871 5.12901 7.43572 5.9628 6.31072C5.96379 6.30938 5.96485 6.30809 5.96579 6.30674C6.22917 5.9523 6.55741 5.63813 6.94665 5.38459C7.07713 5.29957 7.21096 5.22451 7.34702 5.15713C7.3585 5.15203 7.36975 5.14623 7.38094 5.14031C8.86887 4.42061 10.6383 4.73602 11.7865 5.93678C10.2153 6.02268 8.94546 7.26012 8.80934 8.81771H8.64516C7.38176 8.81771 6.28934 9.56244 5.78268 10.6357ZM6.65198 12.3847C6.65227 12.3768 6.65315 12.369 6.65315 12.3611V11.9814C6.65315 10.8829 7.54676 9.98936 8.64516 9.98936H9.38315C9.70671 9.98936 9.96897 9.72709 9.96897 9.40353V9.09539C9.96897 7.99693 10.8626 7.10332 11.961 7.10332H12.7225L12.8789 7.30359C13.3675 7.94965 13.8314 8.59307 14.2903 9.2608C13.0664 11.0975 12.0752 12.8137 11.1066 14.4909C10.5921 15.3819 10.0738 16.2794 9.51756 17.1991C7.67221 14.5994 6.65198 12.3847 6.65198 12.3847ZM23.2744 12.5225C23.2713 12.5289 23.2683 12.5353 23.2655 12.5416C23.247 12.5824 21.3781 16.6597 17.6423 20.7011C14.4282 24.1781 9.17848 28.2814 2.0321 28.7784C5.88967 24.7819 8.20313 21.5489 10.0452 18.5818C10.0546 18.5679 10.0635 18.5538 10.0716 18.5392C10.8066 17.3535 11.467 16.21 12.1214 15.0768C13.525 12.6461 14.9765 10.1325 17.1162 7.30324L17.2724 7.1032H18.0339C19.1324 7.1032 20.026 7.99682 20.026 9.09527V9.40342C20.026 9.72697 20.2883 9.98924 20.6118 9.98924H21.3498C22.4483 9.98924 23.3418 10.8829 23.3418 11.9812V12.3609C23.3418 12.3689 23.3427 12.3767 23.343 12.3846L23.2744 12.5225ZM24.385 10.2881L24.2122 10.6357C23.7056 9.56238 22.6133 8.81766 21.3498 8.81766H21.1856C21.0494 7.26006 19.7797 6.02268 18.2084 5.93672C19.3569 4.73572 21.127 4.42049 22.6151 5.14084C22.6258 5.14646 22.6365 5.15197 22.6475 5.15689C22.7837 5.22439 22.9177 5.29957 23.0483 5.38459C23.4376 5.63807 23.7658 5.95225 24.0292 6.30662C24.0302 6.30803 24.0313 6.30938 24.0323 6.31078C24.8659 7.43584 25.0406 8.96877 24.385 10.2881ZM24.4757 5.03924C24.2586 4.82461 24.0192 4.6275 23.7584 4.45125C24.8933 3.03352 26.5443 1.43994 28.8233 1.20205V2.1174C26.9446 2.3649 25.5008 3.76307 24.4757 5.03924Z" fill="#333333"/>
</svg>
