<svg width="30" height="26" viewBox="0 0 30 26" fill="none" xmlns="http://www.w3.org/2000/svg">
<path d="M21.4936 0.167088C18.9911 0.153627 16.612 1.25991 15 3.18671C13.398 1.24674 11.0123 0.137311 8.50628 0.167088C3.80838 0.167088 0 4.00042 0 8.72911C0 16.8326 14.0506 24.7447 14.6203 25.0506C14.8501 25.2052 15.1498 25.2052 15.3797 25.0506C15.9494 24.7447 30 16.9472 30 8.72911C30 4.00042 26.1916 0.167088 21.4936 0.167088ZM15 23.5216C12.7974 22.222 1.51899 15.3036 1.51899 8.72911C1.51899 4.84486 4.64732 1.69596 8.50635 1.69596C10.8695 1.66472 13.0811 2.8645 14.3544 4.86849C14.613 5.22735 15.1117 5.30732 15.4682 5.047C15.5363 4.99725 15.5962 4.93704 15.6456 4.86849C17.7574 1.61753 22.0878 0.705342 25.3176 2.83107C27.2948 4.1324 28.4849 6.35119 28.4809 8.72904C28.481 15.38 17.2025 22.2602 15 23.5216Z" fill="#DE3434"/>
</svg>
