<svg width="30" height="30" viewBox="0 0 30 30" fill="none" xmlns="http://www.w3.org/2000/svg">
<path d="M15 1L17.9894 3.84356L22 2.87564L23.1671 6.83292L27.1244 8L26.1564 12.0106L29 15L26.1564 17.9894L27.1244 22L23.1671 23.1671L22 27.1244L17.9894 26.1564L15 29L12.0106 26.1564L8 27.1244L6.83292 23.1671L2.87564 22L3.84356 17.9894L1 15L3.84356 12.0106L2.87564 8L6.83292 6.83292L8 2.87564L12.0106 3.84356L15 1Z" fill="#7ACFFF"/>
<path d="M28.2965 12.7813C27.8335 12.4408 27.2582 12.0156 27.1826 11.7339C27.1004 11.426 27.3939 10.7478 27.6313 10.2039C28.0369 9.26993 28.4569 8.30341 27.9913 7.49733C27.5204 6.68078 26.4626 6.56211 25.4412 6.44735C24.8582 6.38211 24.133 6.30128 23.9164 6.08343C23.6986 5.86693 23.6178 5.14167 23.5525 4.55863C23.4378 3.53733 23.319 2.48081 22.5026 2.00861C21.793 1.59646 20.7417 1.95646 19.796 2.36861C19.2729 2.59557 18.7278 2.81207 18.2647 2.81733C17.983 2.74298 17.5591 2.16648 17.2173 1.7034C16.6291 0.905196 15.9626 0 15 0C14.0386 0 13.3709 0.905196 12.7826 1.70217C12.4408 2.1652 12.0169 2.74176 11.6178 2.83041C11.2669 2.83041 10.7269 2.59563 10.2039 2.36867C9.25563 1.95652 8.20302 1.60043 7.49867 2.00867C6.68084 2.48087 6.56217 3.53739 6.44735 4.55869C6.38345 5.14174 6.30128 5.86565 6.08472 6.08349C5.86687 6.30134 5.14167 6.38217 4.55992 6.44741C3.53733 6.56217 2.47946 6.68219 2.00861 7.49739C1.54296 8.30219 1.96294 9.26871 2.36861 10.2039C2.60602 10.7478 2.90079 11.4261 2.81861 11.7339C2.74298 12.0157 2.16642 12.4409 1.70468 12.7813C0.905196 13.3696 0 14.0374 0 15C0 15.9626 0.905196 16.6304 1.70346 17.2187C2.16648 17.5591 2.7417 17.9843 2.81739 18.2661C2.89956 18.5739 2.60609 19.2522 2.36867 19.7961C1.963 20.73 1.54302 21.6965 2.00867 22.5026C2.47952 23.3192 3.53739 23.4378 4.55869 23.5526C5.14174 23.6178 5.86693 23.6987 6.0835 23.9165C6.30134 24.133 6.38217 24.8583 6.44741 25.4413C6.56217 26.4626 6.68091 27.5191 7.49739 27.9913C8.20436 28.4022 9.25563 28.0435 10.2039 27.6313C10.727 27.4044 11.2617 27.1748 11.7352 27.1826C12.0169 27.257 12.4408 27.8335 12.7826 28.2965C13.3709 29.0948 14.0374 30 15 30C15.9614 30 16.6291 29.0948 17.2161 28.2978C17.5578 27.8348 17.9818 27.2582 18.3809 27.1696C18.7331 27.1696 19.2731 27.4044 19.7948 27.6313C20.7444 28.0448 21.7956 28.4009 22.5 27.9926C23.3178 27.5204 23.4365 26.4639 23.5513 25.4413C23.6152 24.8583 23.6974 24.1344 23.9139 23.9165C24.1318 23.6987 24.857 23.6178 25.4387 23.5526C26.4613 23.4378 27.5192 23.3178 27.99 22.5026C28.457 21.6978 28.037 20.7313 27.63 19.7961C27.3926 19.2522 27.0992 18.5752 27.1813 18.2661C27.257 17.9843 27.8335 17.5591 28.2953 17.2187C29.0948 16.6304 30.0001 15.9626 30.0001 15C30.0001 14.0374 29.0947 13.3696 28.2965 12.7813ZM27.5243 16.1661C26.8317 16.676 26.1156 17.203 25.9226 17.9256C25.723 18.6743 26.0857 19.5078 26.4365 20.3139C26.6608 20.8304 27 21.6104 26.8643 21.8465C26.7222 22.093 25.8652 22.1896 25.2965 22.2535C24.4304 22.3513 23.5343 22.4517 22.9943 22.9917C22.4543 23.5317 22.3539 24.4278 22.2574 25.2939C22.1935 25.8613 22.0969 26.7195 21.8491 26.8617C21.8113 26.8839 21.7487 26.8891 21.7031 26.8891C21.3639 26.8891 20.8317 26.657 20.3166 26.4339C19.5079 26.083 18.6235 25.7335 17.9296 25.9213C17.2057 26.1144 16.6787 26.8304 16.1675 27.523C15.8231 27.99 15.3027 28.6957 15.0001 28.6957C14.6975 28.6957 14.1757 27.99 13.8327 27.523C13.3227 26.8317 12.7958 26.1156 12.0719 25.9226C11.9297 25.8848 11.7771 25.8652 11.6167 25.8652C10.9945 25.8652 10.328 26.1548 9.68361 26.4365C9.16972 26.6595 8.63755 26.8917 8.29711 26.8917C8.25144 26.8917 8.18883 26.8865 8.15105 26.8643C7.90324 26.7208 7.80798 25.8639 7.74409 25.2965C7.64627 24.4304 7.54581 23.5343 7.00581 22.9943C6.4671 22.4543 5.56973 22.3539 4.70366 22.256C4.13755 22.1921 3.27931 22.0956 3.13716 21.8491C3.0002 21.6143 3.34064 20.833 3.56496 20.3164C3.91585 19.5104 4.27842 18.6769 4.07886 17.9282C3.88449 17.2056 3.1684 16.6787 2.47714 16.1686C2.0102 15.823 1.30451 15.3026 1.30451 14.9999C1.30451 14.6973 2.01014 14.1769 2.47714 13.8312C3.16975 13.3212 3.88583 12.7942 4.07886 12.0716C4.27842 11.3229 3.91579 10.4895 3.56496 9.68337C3.34192 9.16685 3.00149 8.38687 3.13716 8.15074C3.28066 7.90422 4.13761 7.80768 4.705 7.74507C5.57107 7.64724 6.46716 7.54679 7.00716 7.00679C7.54716 6.46679 7.64761 5.5707 7.74544 4.70464C7.80805 4.13725 7.90459 3.28029 8.15239 3.13679C8.19024 3.1146 8.25285 3.1094 8.29846 3.1094C8.63761 3.1094 9.16978 3.34155 9.68368 3.56594C10.4924 3.91683 11.3754 4.26766 12.0706 4.07855C12.7945 3.88553 13.3215 3.16944 13.8328 2.47683C14.1771 2.0099 14.6976 1.3042 15.0002 1.3042C15.3027 1.3042 15.8245 2.00984 16.1689 2.47549C16.6788 3.16681 17.2058 3.8829 17.9297 4.07592C18.6184 4.25983 19.508 3.91549 20.3167 3.56331C20.8306 3.34027 21.3628 3.10812 21.7032 3.10812C21.7489 3.10812 21.8115 3.11331 21.8493 3.13551C22.0971 3.27901 22.1923 4.13596 22.2562 4.70335C22.354 5.56942 22.4545 6.46551 22.9945 7.00551C23.5332 7.5455 24.4306 7.64596 25.2966 7.74379C25.8628 7.80768 26.721 7.90422 26.8631 8.15074C27.0001 8.38552 26.6597 9.16685 26.4353 9.68337C26.0845 10.4895 25.7219 11.3229 25.9215 12.0716C26.1158 12.7942 26.8319 13.3212 27.5232 13.8312C27.9901 14.1768 28.6958 14.6973 28.6958 14.9999C28.6958 15.3026 27.99 15.8231 27.5243 16.1661Z" fill="#333333"/>
<path d="M11.0867 11.7389C10.7267 11.7389 10.4345 12.0311 10.4345 12.3911V15.6519L7.6954 11.9998C7.52714 11.7755 7.23237 11.6828 6.96757 11.7728C6.70148 11.8616 6.52148 12.1106 6.52148 12.3911V17.6085C6.52148 17.9685 6.81368 18.2607 7.17368 18.2607C7.53368 18.2607 7.82587 17.9685 7.82587 17.6085V14.3476L10.565 17.9998C10.6902 18.1667 10.8859 18.2607 11.0867 18.2607C11.1559 18.2607 11.225 18.2502 11.2928 18.2267C11.5589 18.138 11.7389 17.8889 11.7389 17.6085V12.3911C11.7389 12.0311 11.4467 11.7389 11.0867 11.7389Z" fill="#333333"/>
<path d="M16.3049 16.9566H14.3483V13.0436H16.3049C16.6649 13.0436 16.957 12.7514 16.957 12.3914C16.957 12.0314 16.6649 11.7393 16.3049 11.7393H13.6961C13.3361 11.7393 13.0439 12.0315 13.0439 12.3915V17.6088C13.0439 17.9688 13.3361 18.261 13.6961 18.261H16.3049C16.6649 18.261 16.957 17.9688 16.957 17.6088C16.957 17.2488 16.6649 16.9566 16.3049 16.9566Z" fill="#333333"/>
<path d="M16.3049 14.3477H13.6961C13.3361 14.3477 13.0439 14.6398 13.0439 14.9998C13.0439 15.3598 13.3361 15.652 13.6961 15.652H16.3049C16.6649 15.652 16.957 15.3598 16.957 14.9998C16.957 14.6398 16.6649 14.3477 16.3049 14.3477Z" fill="#333333"/>
<path d="M24.2873 11.7589C23.9351 11.6715 23.583 11.8828 23.4969 12.2337L22.7365 15.278L22.1404 13.4898C21.963 12.9576 21.0813 12.9576 20.9026 13.4898L20.3065 15.278L19.5461 12.2337C19.4587 11.8828 19.0987 11.6702 18.7557 11.7589C18.4061 11.8463 18.1948 12.1998 18.2809 12.5493L19.5852 17.7667C19.6557 18.0472 19.9035 18.2493 20.1931 18.2598C20.5205 18.2728 20.7461 18.0889 20.8374 17.815L21.5222 15.758L22.207 17.815C22.297 18.0823 22.5461 18.261 22.8265 18.261C22.8344 18.261 22.8435 18.261 22.85 18.2598C23.1396 18.2493 23.3874 18.0485 23.4578 17.7667L24.7621 12.5493C24.8495 12.1998 24.6381 11.8463 24.2873 11.7589Z" fill="#333333"/>
</svg>
