<svg width="30" height="30" viewBox="0 0 30 30" fill="none" xmlns="http://www.w3.org/2000/svg">
<path d="M9.5 14L11.5 12.5H12L12.5 9.5L13 7L12 4.5L9.5 2.5L4.5 1H1V6L2 11L6 14H9.5Z" fill="#27AE60"/>
<path d="M17 11.5L18 14.5V15.5L20.5 17H24L27 15L28.5 11.5L29 6.5L29.5 4H27.5H25L21 5L17.5 7.5L17 11.5Z" fill="#27AE60"/>
<path d="M12.061 3.21897C9.44015 0.334476 4.31141 0 0.681129 0C0.305158 0 0 0.335953 0 0.749952C0 4.74743 0.302412 10.3949 2.92329 13.281C4.02943 14.499 5.72539 15.0435 7.40634 15.0435C9.23308 15.0435 11.0435 14.4 12.061 13.2795C14.0131 11.13 14.3714 5.76147 12.061 3.21897ZM11.098 12.2204C9.6404 13.8239 5.59328 14.0984 3.88781 12.2204C1.77226 9.89099 1.40581 5.15847 1.36628 1.50448C4.68464 1.548 8.98245 1.95145 11.0979 4.28097C12.8035 6.15895 12.5542 10.617 11.098 12.2204Z" fill="#333333"/>
<path d="M29.3191 2.9668C25.6888 2.9668 20.56 3.2998 17.9391 6.18577C15.6288 8.72827 15.987 14.0968 17.9391 16.2463C18.9567 17.3653 20.7657 18.0088 22.5924 18.0088C24.2734 18.0088 25.968 17.4658 27.0768 16.2478C29.6964 13.3619 30.0001 7.71436 30.0001 3.71682C30.0002 3.30282 29.695 2.9668 29.3191 2.9668ZM26.111 15.1858C24.4056 17.0637 20.357 16.7892 18.9009 15.1858C17.4447 13.5823 17.1954 9.12427 18.9009 7.24629C21.0164 4.91677 25.3141 4.51332 28.6325 4.4698C28.593 8.12527 28.2266 12.8578 26.111 15.1858Z" fill="#333333"/>
<path d="M24.3997 9.45887C24.239 9.08235 23.7786 8.9534 23.4394 9.12735C18.2153 11.8318 15.6489 16.5478 14.4828 21.3958C13.0402 11.0878 8.86774 7.94533 7.09823 6.61185C6.87755 6.44535 6.70591 6.32385 6.61057 6.22035C6.34494 5.92785 5.9131 5.92785 5.64747 6.22035C5.38183 6.51285 5.38183 6.98837 5.64747 7.28087C5.78233 7.4279 6.01526 7.6124 6.32994 7.84935C8.32422 9.35087 13.6219 13.3424 13.6219 29.2499C13.6219 29.6639 13.927 29.9999 14.303 29.9999C14.679 29.9999 14.9841 29.6639 14.9841 29.2514C14.9841 22.8239 16.552 14.3504 24.0197 10.4864C24.0197 10.4849 24.13 10.4279 24.13 10.4279C24.4692 10.2509 24.5605 9.83385 24.3997 9.45887Z" fill="#333333"/>
</svg>
