<svg width="20" height="20" viewBox="0 0 20 20" fill="none" xmlns="http://www.w3.org/2000/svg">
<path fill-rule="evenodd" clip-rule="evenodd" d="M15.625 13.125H13.75V20H17.5C18.8787 20 20 18.8787 20 17.5V2.5C20 1.12125 18.8787 0 17.5 0H2.5C1.12125 0 0 1.12125 0 2.5V17.5C0 18.8787 1.12125 20 2.5 20H10V13.125H7.5V10H10V7.5C10 5.42875 11.6788 3.75 13.75 3.75H16.25V6.875H15C14.9442 6.875 14.8893 6.87458 14.8355 6.87416C14.2231 6.86942 13.75 6.86577 13.75 7.5V10H16.875L15.625 13.125ZM14.95 8.8H18.6474L16.4374 14.325H14.95V18.8H17.5C18.216 18.8 18.8 18.216 18.8 17.5V2.5C18.8 1.78399 18.216 1.2 17.5 1.2H2.5C1.78399 1.2 1.2 1.78399 1.2 2.5V17.5C1.2 18.216 1.78399 18.8 2.5 18.8H8.8V14.325H6.3V8.8H8.8V7.5C8.8 4.76601 11.016 2.55 13.75 2.55H17.45V8.075H15C14.9836 8.075 14.9668 8.07496 14.95 8.0749V8.8Z" fill="#F2F2F2"/>
</svg>
