<svg width="22" height="22" viewBox="0 0 22 22" fill="none" xmlns="http://www.w3.org/2000/svg">
<path d="M21 3.38256C21 2.75067 20.7538 2.14465 20.3155 1.69784C19.8772 1.25102 19.2828 1 18.6629 1H3.33706C2.71724 1 2.12279 1.25102 1.68451 1.69784C1.24623 2.14465 1 2.75067 1 3.38256V19.0066C0.999976 19.3195 1.06041 19.6294 1.17785 19.9185C1.29528 20.2075 1.46743 20.4702 1.68445 20.6915C1.90146 20.9127 2.15911 21.0883 2.44267 21.208C2.72622 21.3277 3.03014 21.3894 3.33706 21.3894H18.6628C18.9697 21.3894 19.2736 21.3278 19.5572 21.2081C19.8407 21.0883 20.0984 20.9129 20.3154 20.6916C20.5325 20.4704 20.7046 20.2077 20.8221 19.9186C20.9395 19.6295 21 19.3197 21 19.0068V3.38256ZM18.6588 20.6411H3.34124C2.91534 20.6399 2.50725 20.4668 2.2061 20.1598C1.90495 19.8528 1.7352 19.4367 1.73394 19.0026V7.26646H6.54055C5.7011 8.34205 5.19725 9.65852 5.19725 11.1148C5.19725 14.4736 7.87766 17.2085 11.1724 17.2085C14.4671 17.2085 17.1475 14.4724 17.1475 11.1136C17.1475 9.6574 16.6435 8.34205 15.8042 7.26646H20.2661V19.0026C20.2648 19.4367 20.0951 19.8528 19.7939 20.1598C19.4927 20.4668 19.0847 20.6399 18.6588 20.6411ZM11.1725 5.77612C12.2091 5.77615 13.2224 6.08954 14.0843 6.67668C14.9462 7.26382 15.618 8.09832 16.0147 9.07467C16.4113 10.051 16.5151 11.1254 16.3129 12.1618C16.1106 13.1983 15.6114 14.1504 14.8784 14.8976C14.1454 15.6449 13.2116 16.1538 12.1949 16.3599C11.1782 16.5661 10.1244 16.4603 9.16667 16.0559C8.20897 15.6514 7.39041 14.9666 6.81451 14.0879C6.2386 13.2092 5.9312 12.1762 5.93119 11.1194C5.93276 9.70277 6.48546 8.34462 7.46803 7.34291C8.4506 6.3412 9.78281 5.77773 11.1724 5.77612H11.1725ZM3.34124 1.74823H18.6588C19.0847 1.74952 19.4927 1.92257 19.7939 2.22958C20.0951 2.5366 20.2648 2.95263 20.2661 3.38682V6.51823H15.0942C14.0078 5.55138 12.6145 5.01863 11.1724 5.01863C9.73028 5.01863 8.33701 5.55138 7.2506 6.51823H1.73394V3.38682C1.7352 2.95263 1.90495 2.5366 2.2061 2.22958C2.50725 1.92257 2.91534 1.74952 3.34124 1.74823Z" fill="white"/>
<path fill-rule="evenodd" clip-rule="evenodd" d="M20.4581 1.55783C20.9334 2.04244 21.1998 2.69891 21.1998 3.38261V19.0069C21.1998 19.3455 21.1344 19.6809 21.0072 19.994C20.88 20.307 20.6934 20.5917 20.458 20.8317C20.2226 21.0717 19.9429 21.2623 19.6348 21.3924C19.3266 21.5225 18.9963 21.5895 18.6626 21.5894H3.33687C3.00314 21.5894 2.67277 21.5224 2.36466 21.3923C2.05657 21.2622 1.77688 21.0716 1.54147 20.8316C1.30606 20.5916 1.11954 20.3069 0.992356 19.9938C0.865179 19.6807 0.799781 19.3453 0.799805 19.0067C0.799805 19.0067 0.799805 19.0067 0.799805 19.0067V3.38261C0.799805 2.69891 1.06618 2.04244 1.54154 1.55783C2.01702 1.0731 2.66274 0.800049 3.33687 0.800049H18.6627C19.3369 0.800049 19.9826 1.0731 20.4581 1.55783ZM0.999805 19.0067V3.38261C0.999805 2.75072 1.24603 2.1447 1.68432 1.69789C2.1226 1.25107 2.71704 1.00005 3.33687 1.00005H18.6627C19.2826 1.00005 19.877 1.25107 20.3153 1.69789C20.7536 2.1447 20.9998 2.75072 20.9998 3.38261V19.0069C20.9998 19.3198 20.9394 19.6296 20.8219 19.9187C20.7044 20.2078 20.5323 20.4704 20.3152 20.6917C20.0982 20.9129 19.8405 21.0884 19.557 21.2081C19.2734 21.3278 18.9695 21.3895 18.6626 21.3894H3.33687C3.02995 21.3894 2.72603 21.3278 2.44247 21.208C2.15891 21.0883 1.90127 20.9128 1.68425 20.6915C1.46723 20.4703 1.29509 20.2076 1.17765 19.9185C1.06021 19.6294 0.999781 19.3196 0.999805 19.0067ZM3.34165 20.4412H18.658C19.0298 20.4401 19.3868 20.289 19.6509 20.0198C19.9152 19.7504 20.0648 19.3846 20.0659 19.002V7.46651H16.199C16.9207 8.51123 17.3473 9.7526 17.3473 11.1136C17.3473 14.5791 14.5811 17.4086 11.1722 17.4086C7.76329 17.4086 4.99705 14.5803 4.99705 11.1148C4.99705 9.75377 5.42352 8.51145 6.14531 7.46651H1.93375V19.0023C1.93493 19.3848 2.08452 19.7505 2.34868 20.0198C2.61278 20.289 2.96984 20.4401 3.34165 20.4412ZM3.34104 20.6412C2.91515 20.6399 2.50706 20.4669 2.20591 20.1598C1.90475 19.8528 1.73501 19.4368 1.73375 19.0026V7.26651H6.54035C6.48902 7.33228 6.43894 7.39896 6.39016 7.46651C5.64117 8.50363 5.19705 9.74762 5.19705 11.1148C5.19705 14.4736 7.87746 17.2086 11.1722 17.2086C14.4669 17.2086 17.1473 14.4725 17.1473 11.1136C17.1473 9.7465 16.7031 8.5035 15.9542 7.46651C15.9054 7.39896 15.8554 7.33229 15.804 7.26651H20.2659V19.0026C20.2646 19.4368 20.0949 19.8528 19.7937 20.1598C19.4926 20.4669 19.0845 20.6399 18.6586 20.6412H3.34104ZM13.9715 6.84202C13.1427 6.27737 12.1686 5.97621 11.1724 5.97617C9.83707 5.97771 8.55604 6.51916 7.61061 7.48301C6.66505 8.44699 6.13251 9.75478 6.131 11.1197C6.13105 12.1377 6.4272 13.1325 6.98158 13.9783C7.53598 14.8242 8.32356 15.4829 9.24428 15.8717C10.165 16.2604 11.1778 16.3621 12.1549 16.164C13.1321 15.9658 14.0302 15.4766 14.7355 14.7576C15.4408 14.0386 15.9215 13.122 16.1164 12.1236C16.3112 11.1251 16.2112 10.0903 15.8292 9.15C15.4472 8.20975 14.8005 7.40672 13.9715 6.84202ZM5.931 11.1194C5.93101 12.1762 6.2384 13.2093 6.81431 14.088C7.39022 14.9666 8.20878 15.6515 9.16647 16.0559C10.1242 16.4603 11.178 16.5661 12.1947 16.36C13.2114 16.1538 14.1452 15.6449 14.8782 14.8977C15.6112 14.1504 16.1104 13.1984 16.3127 12.1619C16.5149 11.1254 16.4111 10.0511 16.0145 9.07472C15.6178 8.09837 14.946 7.26387 14.0841 6.67673C13.2222 6.08959 12.2089 5.7762 11.1723 5.77617C9.78275 5.77778 8.45041 6.34125 7.46783 7.34296C6.48526 8.34467 5.93256 9.70282 5.931 11.1194ZM18.6583 1.94828H3.34136C2.96966 1.94948 2.61272 2.10051 2.34868 2.36968C2.08452 2.63899 1.93493 3.0047 1.93375 3.38717V6.31828H7.17501C8.28915 5.35115 9.70598 4.81868 11.1722 4.81868C12.6384 4.81868 14.0553 5.35115 15.1694 6.31828H20.0659V3.38745C20.0648 3.00488 19.9152 2.63905 19.6509 2.36968C19.3869 2.10051 19.03 1.94948 18.6583 1.94828ZM15.094 6.51828H20.2659V3.38687C20.2646 2.95268 20.0949 2.53665 19.7937 2.22963C19.4926 1.92261 19.0845 1.74957 18.6586 1.74828H3.34104C2.91515 1.74957 2.50706 1.92261 2.20591 2.22963C1.90475 2.53665 1.73501 2.95268 1.73375 3.38687V6.51828H7.2504C8.33682 5.55143 9.73009 5.01868 11.1722 5.01868C12.6143 5.01868 14.0076 5.55143 15.094 6.51828Z" fill="white"/>
</svg>
