<svg width="16" height="21" viewBox="0 0 16 21" fill="none" xmlns="http://www.w3.org/2000/svg">
<path d="M7.57305 20.4417C7.65886 20.5419 7.78581 20.5998 7.91969 20.6H7.91998C8.05372 20.5998 8.18053 20.542 8.26648 20.4422L13.6331 14.2169C16.7609 11.0891 16.7934 6.02207 13.7028 2.91469C12.242 1.43204 10.2222 0.595724 8.11224 0.599992H8.11055C5.94853 0.599992 3.91234 1.4498 2.37915 2.99027C-0.756781 6.11348 -0.797496 11.1802 2.28585 14.2927L7.57305 20.4417ZM3.02749 3.60467C4.39032 2.23545 6.19537 1.48105 8.11055 1.48105H8.11196C9.97695 1.47747 11.7619 2.21687 13.0528 3.52744C14.3811 4.8632 15.1057 6.64982 15.0925 8.55827C15.0792 10.4703 14.327 12.2652 12.9741 13.6126C12.966 13.6205 12.9582 13.629 12.951 13.6374L7.9204 19.4726L2.96938 13.7151C2.96246 13.7068 2.9551 13.699 2.94747 13.6913C1.61913 12.3556 0.894595 10.5689 0.907884 8.66042C0.91156 6.77083 1.672 4.95695 3.02749 3.60467Z" fill="#F2F2F2"/>
<path d="M8.00017 12.0456C10.2196 12.0456 12.0187 10.2938 12.0187 8.13272C12.0187 5.97165 10.2196 4.21973 8.00032 4.21973C5.7809 4.21973 3.98193 5.97165 3.98193 8.13272C3.98448 10.2928 5.78203 12.0432 8.00017 12.0456ZM8.00017 5.10078C9.71983 5.10078 11.1139 6.45816 11.1139 8.13272C11.1139 9.80714 9.71998 11.1645 8.00032 11.1645C6.28066 11.1645 4.88672 9.80714 4.88672 8.13272C4.8887 6.45899 6.28136 5.10271 8.00017 5.10078Z" fill="#F2F2F2"/>
</svg>
