<svg width="20" height="15" viewBox="0 0 20 15" fill="none" xmlns="http://www.w3.org/2000/svg">
<path d="M17.9079 0H2.0921C0.937196 0.00152146 0.00130756 0.969514 0 2.16387V12.8361C0.00130756 14.0307 0.937196 14.9986 2.0921 15H17.9079C19.0628 14.9986 19.9987 14.0307 20 12.8361V2.16387C19.9987 0.969514 19.0628 0.00135242 17.9079 0ZM14.1882 7.49713L19.1632 3.45847V12.4921L14.1882 7.49713ZM2.0921 0.865547H17.9079C18.6007 0.866392 19.1623 1.44726 19.1632 2.16387V2.35828L11.1123 8.894C10.5066 9.38307 9.65668 9.38223 9.05177 8.89214L0.836841 2.35659V2.16387C0.837658 1.44726 1.39909 0.866392 2.0921 0.865547ZM5.95987 7.52434L0.836841 12.5097V3.44866L5.95987 7.52434ZM17.9079 14.1345H2.0921C1.65636 14.1343 1.25199 13.9003 1.0235 13.5164L6.6318 8.05922L8.53904 9.57647C9.44666 10.3098 10.7204 10.3095 11.6277 9.57562L13.524 8.03674L18.9786 13.513C18.7506 13.8988 18.3451 14.1341 17.9079 14.1345Z" fill="#F2F2F2"/>
</svg>
