<svg width="20" height="20" viewBox="0 0 20 20" fill="none" xmlns="http://www.w3.org/2000/svg">
<g clip-path="url(#clip0)">
<path fill-rule="evenodd" clip-rule="evenodd" d="M15.8322 9.25127C15.8496 9.22712 15.8717 9.19619 15.8982 9.15909C15.9703 9.05795 16.0739 8.91151 16.1993 8.73169C16.4504 8.37153 16.7867 7.88021 17.1303 7.35224C17.4753 6.82216 17.8206 6.2659 18.0933 5.77354C18.2258 5.53426 18.3289 5.33141 18.4051 5.16687H16.6983C16.6865 5.16687 16.6763 5.16721 16.6676 5.16773C16.6674 5.16818 16.6672 5.16863 16.667 5.16909L16.6653 5.17321L16.6539 5.20003C16.6441 5.22279 16.6301 5.2552 16.612 5.29637C16.5758 5.37868 16.5232 5.49619 16.4554 5.64177C16.3199 5.93252 16.1229 6.33737 15.8744 6.79872C15.3837 7.70956 14.6662 8.89012 13.7981 9.84227L13.7795 9.86269L13.7598 9.88205C13.3036 10.33 12.7864 10.8277 12.0383 10.8277C11.075 10.8277 10.6892 9.89813 10.6892 9.21187V5.16687H8.54559C8.74722 5.5424 8.90757 6.02909 8.9451 6.69929L8.94667 6.72723V9.91937C8.94667 10.2566 8.92908 10.7073 8.72145 11.0782C8.59156 11.3103 8.39338 11.5052 8.13029 11.6226C7.89536 11.7275 7.67452 11.7402 7.54167 11.7402C7.16877 11.7402 6.86452 11.5822 6.6742 11.4593C6.46623 11.325 6.27196 11.152 6.09628 10.9713C5.74305 10.6079 5.3739 10.1183 5.01488 9.56106C4.29415 8.44236 3.54263 6.93881 2.98309 5.3378C2.95599 5.26354 2.93339 5.20849 2.91479 5.1677H1.07715C1.08993 5.21893 1.10477 5.27547 1.122 5.33746C1.2214 5.69501 1.38437 6.17774 1.63217 6.76497C2.12726 7.93827 2.95363 9.5113 4.26559 11.3165L4.27225 11.3256C5.93456 13.6682 8.20135 14.8335 10.1283 14.8335C10.3773 14.8335 10.5593 14.8225 10.6906 14.8065C10.6899 14.522 10.6877 14.2839 10.6857 14.0678C10.684 13.8873 10.6825 13.7221 10.6821 13.5582C10.6812 13.2061 10.6851 12.8718 10.7268 12.6015C10.7672 12.3387 10.8777 11.8846 11.3105 11.5856C11.6747 11.334 12.0876 11.3343 12.2535 11.3344L12.2625 11.3344C13.003 11.3344 13.81 11.7493 15.1295 12.9969L15.1362 13.0032L15.1428 13.0097C15.5316 13.3911 15.8384 13.7191 16.0886 13.9911C16.1412 14.0483 16.1901 14.1016 16.2359 14.1516C16.4165 14.3486 16.5488 14.493 16.6702 14.6125C16.8182 14.7582 16.8888 14.8038 16.9197 14.8197C16.9203 14.82 16.921 14.8204 16.9216 14.8207C16.9313 14.8259 16.9458 14.8335 17.0042 14.8335H18.7892C18.7076 14.7048 18.6021 14.5528 18.4701 14.3788C18.1736 13.9878 17.8033 13.5622 17.4285 13.1557C17.0557 12.7514 16.6895 12.3781 16.4049 12.0914C16.3411 12.0271 16.2789 11.9647 16.2216 11.9072C16.1554 11.8407 16.0958 11.7809 16.048 11.7326C16.0023 11.6863 15.9596 11.6428 15.9248 11.6061C15.9239 11.6052 15.9228 11.604 15.9216 11.6028C15.9039 11.5842 15.8547 11.5326 15.8086 11.4736C15.5888 11.195 15.3494 10.7967 15.3913 10.282C15.4243 9.8771 15.6368 9.54521 15.733 9.395C15.7395 9.38497 15.7454 9.37575 15.7507 9.36737L15.8101 9.27339L15.8322 9.25127ZM16.5958 10.8569C16.6201 10.8904 16.7426 11.0133 16.9277 11.1991C17.7102 11.9844 19.6121 13.8929 19.9483 14.9219C20.13 15.5269 19.8142 15.8335 19.1908 15.8335H17.0042C16.4207 15.8335 16.1263 15.5123 15.4895 14.8172C15.2186 14.5216 14.8858 14.1584 14.4425 13.7235C13.1425 12.4944 12.5858 12.3344 12.2625 12.3344C11.6701 12.3344 11.6716 12.5003 11.6855 14.042C11.688 14.3156 11.6908 14.6324 11.6908 14.9994C11.6908 15.5269 11.5208 15.8335 10.1283 15.8335C7.81167 15.8335 5.265 14.4527 3.45667 11.9044C0.743333 8.17104 0 5.3452 0 4.77687C0 4.4552 0.125833 4.1677 0.75 4.1677H2.9375C3.49833 4.1677 3.70917 4.4077 3.925 5.00187C4.99417 8.06437 6.79833 10.7402 7.54167 10.7402C7.82083 10.7402 7.94667 10.6127 7.94667 9.91937V6.7552C7.89618 5.85366 7.57594 5.46391 7.33877 5.17525C7.19229 4.99698 7.0775 4.85727 7.0775 4.65937C7.0775 4.42187 7.285 4.16687 7.63417 4.16687H11.0725C11.5333 4.16687 11.6892 4.41104 11.6892 4.9577V9.21187C11.6892 9.6677 11.9017 9.8277 12.0383 9.8277C12.3158 9.8277 12.5508 9.6677 13.0592 9.16854C14.6342 7.44104 15.7475 4.77604 15.7475 4.77604C15.885 4.45437 16.1417 4.16687 16.6983 4.16687H18.885C18.8871 4.16687 18.8892 4.16687 18.8913 4.16688C18.9934 4.16721 19.0829 4.17561 19.1607 4.19126C19.1615 4.19142 19.1623 4.19158 19.163 4.19173C19.5826 4.27719 19.6606 4.57482 19.5458 4.9577L19.5442 4.95854C19.2692 6.20937 16.6 9.8977 16.5958 9.90187C16.365 10.2669 16.2725 10.4485 16.5958 10.8569ZM11.0843 5.16722C11.0843 5.16724 11.0837 5.1672 11.0823 5.16707L11.0843 5.16722Z" fill="white"/>
</g>
<defs>
<clipPath id="clip0">
<rect width="20" height="20" fill="white"/>
</clipPath>
</defs>
</svg>
