<svg width="160" height="64" viewBox="0 0 160 64" fill="none" xmlns="http://www.w3.org/2000/svg">
<path d="M7.14581 33.1874H10.1452V31.1955H1.14323C0.877493 31.1961 0.622859 31.3013 0.435307 31.4881C0.247756 31.6748 0.14264 31.9278 0.143068 32.1915C0.143068 46.2842 11.4555 57.7473 25.5287 58.072V56.0801C12.9361 55.7548 2.68781 45.7819 2.14285 33.1874H5.14226C5.66948 43.9329 14.306 52.5265 25.0993 53.0538C25.2438 53.0623 25.3884 53.0666 25.5292 53.0709V51.0981C15.7522 50.8001 7.67787 43.0846 7.14581 33.1874ZM25.1498 7.29412V31.1955H16.1478V33.1874H25.5287V6.51782C25.4103 6.61016 25.3146 6.72808 25.2491 6.8626C25.1835 6.99712 25.1497 7.1447 25.1503 7.29412H25.1498Z" fill="#333333"/>
<path d="M22.0487 45.9529C24.159 45.9529 25.8698 44.2497 25.8698 42.1488C25.8698 40.0478 24.159 38.3446 22.0487 38.3446C19.9383 38.3446 18.2275 40.0478 18.2275 42.1488C18.2275 44.2497 19.9383 45.9529 22.0487 45.9529Z" fill="#333333"/>
<path d="M13.0022 37.6681C13.4166 37.6681 13.7525 37.3337 13.7525 36.9212C13.7525 36.5086 13.4166 36.1742 13.0022 36.1742C12.5879 36.1742 12.252 36.5086 12.252 36.9212C12.252 37.3337 12.5879 37.6681 13.0022 37.6681Z" fill="#333333"/>
<path d="M11.5015 19.4349C12.0206 19.4349 12.4415 19.0157 12.4415 18.4986C12.4415 17.9815 12.0206 17.5624 11.5015 17.5624C10.9824 17.5624 10.5615 17.9815 10.5615 18.4986C10.5615 19.0157 10.9824 19.4349 11.5015 19.4349Z" fill="#333333"/>
<path d="M22.0057 27.7095V7.79357C22.0061 7.52994 21.901 7.27693 21.7135 7.09017C21.5259 6.9034 21.2713 6.79817 21.0055 6.79761C9.40453 6.79761 2.30956e-06 16.16 2.30956e-06 27.7095C-0.000280264 27.8401 0.0253694 27.9694 0.0754859 28.0901C0.125602 28.2109 0.199204 28.3206 0.292084 28.4131C0.384965 28.5056 0.495305 28.579 0.6168 28.6292C0.738295 28.6793 0.868564 28.7053 1.00016 28.7055H21.0055C21.2713 28.7049 21.5259 28.5997 21.7135 28.4129C21.901 28.2262 22.0061 27.9732 22.0057 27.7095ZM9.93766 26.7136C9.93766 25.9076 10.2604 25.1346 10.8349 24.5646C11.4094 23.9947 12.1886 23.6745 13.001 23.6745C13.8135 23.6745 14.5927 23.9947 15.1671 24.5646C15.7416 25.1346 16.0644 25.9076 16.0644 26.7136H9.93766ZM6.03644 26.7136C6.5384 19.2492 12.5082 13.3065 20.0048 12.8075V26.7136H18.0647C18.0263 25.4336 17.4978 24.2161 16.5866 23.3091C15.6755 22.402 14.4502 21.8734 13.1601 21.8308C10.3655 21.7434 8.02494 23.9294 7.9368 26.7136H6.03644ZM20.0048 8.81885V10.8108C11.4 11.313 4.53647 18.1466 4.02591 26.7136H2.02558C2.5528 17.0547 10.3026 9.34135 20.0048 8.81885Z" fill="#333333"/>
<path d="M12.2519 31.1949C11.9866 31.1961 11.7325 31.3016 11.5455 31.4883C11.3585 31.675 11.2538 31.9277 11.2544 32.1909C11.2542 32.3214 11.2799 32.4507 11.33 32.5714C11.3802 32.692 11.4538 32.8017 11.5467 32.8941C11.6395 32.9866 11.7499 33.0599 11.8713 33.1101C11.9928 33.1602 12.123 33.1861 12.2546 33.1863C12.3861 33.1861 12.5163 33.1602 12.6378 33.1101C12.7593 33.0599 12.8696 32.9866 12.9624 32.8941C13.0553 32.8017 13.1289 32.692 13.1791 32.5714C13.2292 32.4507 13.2549 32.3214 13.2547 32.1909C13.255 32.0601 13.2293 31.9306 13.179 31.8097C13.1287 31.6888 13.0549 31.5789 12.9617 31.4864C12.8685 31.3939 12.7579 31.3205 12.6361 31.2705C12.5143 31.2205 12.3837 31.1948 12.2519 31.1949Z" fill="#333333"/>
<path d="M134.244 5.95105V32.9763C134.459 32.9191 134.649 32.793 134.785 32.6174C134.92 32.4419 134.993 32.2269 134.993 32.0059V26.3885C135.321 26.4596 135.656 26.4954 135.992 26.4951C138.754 26.4951 140.996 24.2499 140.996 21.4833C140.996 18.7167 138.754 16.4715 135.992 16.4715C135.657 16.462 135.322 16.4888 134.993 16.5515V12.9627C136.232 13.0284 137.462 13.2157 138.665 13.522C148.841 16.1052 155.002 26.4626 152.423 36.6615C151.684 36.2439 150.848 36.0234 149.998 36.0217C149.114 36.0216 148.245 36.2544 147.481 36.6964C146.717 37.1384 146.085 37.7736 145.65 38.5372C144.276 40.9365 145.101 43.9985 147.496 45.3788C144.182 48.7496 139.711 50.7614 134.971 51.0155C134.725 51.0278 134.482 51.0363 134.244 51.0363V53.0245C145.255 52.8933 154.401 44.1824 154.945 33.0104C155.511 21.3996 146.577 11.5237 134.993 10.9575V7.95256C148.249 8.22714 158.775 19.2216 158.498 32.5082C158.222 45.7099 147.385 56.2022 134.244 56.063V58.0634C148.492 57.935 160 46.3119 160 32.0059C160 17.6999 148.492 6.08274 134.244 5.95105ZM137.039 18.6548C138.597 19.2205 139.4 20.9475 138.838 22.5086C138.706 22.8785 138.502 23.2187 138.237 23.5097C137.972 23.8007 137.651 24.0367 137.293 24.2039C136.936 24.3711 136.548 24.4662 136.153 24.4839C135.758 24.5015 135.364 24.4412 134.992 24.3064V18.6548C135.653 18.4146 136.379 18.415 137.039 18.6559L137.039 18.6548ZM148.887 43.8204C148.329 43.5945 147.851 43.2088 147.515 42.7124C147.178 42.2161 146.999 41.6316 146.998 41.0335C146.998 39.3706 148.339 38.0243 149.998 38.0201C150.653 38.0191 151.289 38.2353 151.806 38.6343C151.109 40.5016 150.124 42.2507 148.888 43.8193L148.887 43.8204Z" fill="#333333"/>
<path d="M138.349 38.5314C139.045 38.5314 139.609 37.9659 139.609 37.2683C139.609 36.5707 139.045 36.0052 138.349 36.0052C137.653 36.0052 137.089 36.5707 137.089 37.2683C137.089 37.9659 137.653 38.5314 138.349 38.5314Z" fill="#333333"/>
<path d="M145.851 30.1019C146.873 30.1019 147.701 29.2717 147.701 28.2475C147.701 27.2234 146.873 26.3932 145.851 26.3932C144.829 26.3932 144 27.2234 144 28.2475C144 29.2717 144.829 30.1019 145.851 30.1019Z" fill="#333333"/>
<path d="M134.377 6.6116V57.3884C133.634 57.3881 132.898 57.5331 132.212 57.815C131.525 58.0969 130.901 58.5102 130.376 59.0313C129.851 59.5525 129.434 60.1712 129.15 60.8522C128.866 61.5331 128.719 62.263 128.72 63H31.1838C31.1841 62.263 31.038 61.5332 30.7538 60.8522C30.4697 60.1712 30.053 59.5525 29.5277 59.0314C29.0024 58.5102 28.3787 58.0969 27.6923 57.815C27.0059 57.5331 26.2702 57.3881 25.5273 57.3884V6.6116C27.0274 6.61131 28.466 6.02 29.5268 4.96769C30.5875 3.91537 31.1835 2.4882 31.1838 1H128.72C128.72 2.48825 129.316 3.91542 130.377 4.96772C131.438 6.02002 132.877 6.61131 134.377 6.6116Z" fill="#FA231D" stroke="#333333" stroke-width="1.3" stroke-miterlimit="10"/>
<path fill-rule="evenodd" clip-rule="evenodd" d="M32.1027 7.51428H41.2428C42.3607 7.51752 43.4318 7.95953 44.2222 8.74376C45.0126 9.52798 45.458 10.5907 45.4612 11.6997V42.2214C45.4583 43.3305 45.013 44.3933 44.2225 45.1776C43.4321 45.9619 42.3608 46.4038 41.2428 46.4068H32.0898L32.1027 7.51428ZM119.034 7.51428H123.589C124.707 7.51738 125.779 7.95931 126.569 8.74353C127.36 9.52776 127.805 10.5905 127.809 11.6997V42.2214C127.806 43.3306 127.36 44.3934 126.569 45.1777C125.779 45.9619 124.707 46.4038 123.589 46.4068H119.034C117.916 46.4041 116.844 45.9623 116.053 45.178C115.263 44.3937 114.817 43.3307 114.814 42.2214V11.6997C114.817 10.5904 115.263 9.52746 116.054 8.74319C116.844 7.95892 117.916 7.5171 119.034 7.51428ZM121.311 11.504C120.627 11.504 120.158 11.8425 120.158 12.2579L120.142 41.6637C120.142 42.079 120.683 42.4171 121.311 42.4171C121.927 42.4171 122.464 42.079 122.464 41.6637L122.481 12.2579C122.481 11.8425 121.96 11.504 121.311 11.504ZM104.803 7.51428H109.808V46.4068H104.803V7.51428ZM76.7902 46.4068H81.7975V7.51428H76.7902V29.8295L73.4726 7.51428H68.4659V46.4068H73.4726V23.4219L76.7902 46.4068ZM91.0214 7.51428H95.5772C96.6951 7.51752 97.7662 7.95953 98.5566 8.74376C99.347 9.52798 99.7924 10.5907 99.7955 11.6997V21.4374H94.4637V12.2579C94.4637 11.8425 93.9563 11.504 93.298 11.504C92.6617 11.504 92.1414 11.8425 92.1414 12.2579L92.1522 41.6637C92.1522 42.079 92.6321 42.4171 93.298 42.4171C93.9907 42.4171 94.4637 42.079 94.4637 41.6637V28.889L93.298 28.8938V24.0057H99.7955V42.2214C99.7927 43.3305 99.3474 44.3933 98.5569 45.1776C97.7665 45.9619 96.6952 46.4038 95.5772 46.4068H91.0209C89.9029 46.404 88.8314 45.9621 88.0408 45.1778C87.2503 44.3935 86.8049 43.3306 86.802 42.2214V11.6997C86.8052 10.5906 87.2506 9.52781 88.0412 8.74357C88.8317 7.95933 89.9029 7.51738 91.0209 7.51428H91.0214ZM54.6846 7.51428H59.2415C60.3593 7.51752 61.4304 7.95953 62.2208 8.74376C63.0112 9.52798 63.4566 10.5907 63.4598 11.6997V42.2214C63.4569 43.3305 63.0116 44.3933 62.2211 45.1776C61.4307 45.9619 60.3594 46.4038 59.2415 46.4068H54.6846C53.5667 46.4038 52.4954 45.9619 51.7051 45.1776C50.9147 44.3933 50.4695 43.3304 50.4668 42.2214V11.6997C50.4698 10.5907 50.9151 9.52803 51.7054 8.74379C52.4957 7.95955 53.5668 7.51752 54.6846 7.51428ZM56.9633 11.504C56.2458 11.504 55.8099 11.8425 55.8099 12.2579L55.8207 41.6637C55.8207 42.079 56.2458 42.4171 56.9633 42.4171C57.6447 42.4171 58.1322 42.079 58.1322 41.6637L58.1483 12.2579C58.1483 11.8425 57.6936 11.504 56.966 11.504H56.9633ZM37.4244 11.504L37.4411 42.4171H38.9636C39.673 42.4171 40.0788 42.1505 40.0788 41.6637V12.2579C40.0788 11.7866 39.7257 11.504 38.9636 11.504H37.4244Z" fill="white"/>
<path d="M66.8633 50.8284H69.2699C70.0409 50.8284 70.6384 51.0146 71.0622 51.3871C71.5062 51.7739 71.7281 52.3227 71.7281 53.0336C71.7281 53.6972 71.5334 54.2289 71.1439 54.6288C70.748 55.028 70.1678 55.2277 69.4032 55.2281H68.4401V57.6055H66.8633V50.8284ZM68.4401 52.108V53.9469H69.0033C69.3932 53.9469 69.6766 53.8621 69.8536 53.6926C70.0245 53.5234 70.1099 53.3 70.1099 53.0224C70.1099 52.738 70.0245 52.5178 69.8536 52.3618C69.6762 52.1929 69.3826 52.1083 68.9727 52.108H68.4401Z" fill="#FFFBFB"/>
<path d="M72.752 50.8284H74.3293V57.6055H72.752V50.8284Z" fill="#FFFBFB"/>
<path d="M81.1911 50.8284L77.924 56.2848H80.8519V57.6055H75.3325L78.6109 52.1496H75.8656V50.8284H81.1911Z" fill="#FFFBFB"/>
<path d="M87.4996 50.8284L84.2326 56.2848H87.1616V57.6055H81.6416L84.9199 52.1496H82.1753V50.8284H87.4996Z" fill="#FFFBFB"/>
<path d="M92.998 57.6055L92.4858 56.3259H89.9061L89.3837 57.6055H87.7451L90.5 50.8284H91.9441L94.6377 57.6055H92.998ZM90.3646 55.1268H92.0548L91.2148 52.8507L90.3646 55.1268Z" fill="#FFFBFB"/>
</svg>
