<svg width="16" height="16" viewBox="0 0 16 16" fill="none" xmlns="http://www.w3.org/2000/svg">
<path d="M3.58187 16C3.40584 16 3.23177 15.9431 3.0832 15.831C2.80646 15.6223 2.67719 15.2626 2.7525 14.9148L3.78183 10.1842L0.291016 6.98953C0.0344181 6.75515 -0.0636068 6.38573 0.0417426 6.04689C0.147092 5.70882 0.43372 5.46883 0.773084 5.43609L5.39259 4.99853L7.21795 0.539214C7.3526 0.211584 7.65925 0 7.99995 0C8.34066 0 8.64731 0.211584 8.78196 0.53845L10.6073 4.99853L15.2261 5.43609C15.5662 5.46806 15.8528 5.70818 15.9582 6.04626C16.0635 6.38497 15.9661 6.75515 15.7088 6.98889L12.2187 10.1828L13.248 14.9134C13.3235 15.2613 13.1941 15.6209 12.9174 15.8296C12.642 16.0376 12.2747 16.055 11.9833 15.8727L7.99995 13.3891L4.01719 15.8741C3.88254 15.9583 3.73251 16 3.58187 16ZM7.99995 12.3193C8.15132 12.3193 8.30123 12.3617 8.436 12.4451L12.1948 14.791L11.2233 10.3253C11.154 10.0067 11.2574 9.67554 11.4927 9.46064L14.7888 6.44344L10.428 6.03021C10.1154 6.00104 9.8446 5.79582 9.72192 5.49316L7.99995 1.28492L6.27652 5.49379C6.15457 5.79506 5.88393 6.00027 5.57057 6.02957L1.21047 6.4428L4.50646 9.45988C4.74255 9.6749 4.84521 10.0067 4.77587 10.3253L3.80453 14.791L7.5633 12.4451C7.69855 12.3617 7.84858 12.3193 7.99995 12.3193ZM5.35658 5.08553V5.08617V5.08553ZM10.6427 5.08336V5.08413C10.6427 5.08413 10.6427 5.08413 10.6427 5.08336Z" fill="#333333"/>
</svg>
